<svg width="128" height="43" viewBox="0 0 128 43" fill="none" xmlns="http://www.w3.org/2000/svg">
<path d="M121.683 0.712891H7.2941C4.07685 0.712891 1.46875 3.32099 1.46875 6.53824V36.1945C1.46875 39.4118 4.07685 42.0199 7.2941 42.0199H121.683C124.9 42.0199 127.508 39.4118 127.508 36.1945V6.53824C127.508 3.32099 124.9 0.712891 121.683 0.712891Z" fill="black"/>
<path d="M121.683 0.712891H7.2941C4.07685 0.712891 1.46875 3.32099 1.46875 6.53824V36.1945C1.46875 39.4118 4.07685 42.0199 7.2941 42.0199H121.683C124.9 42.0199 127.508 39.4118 127.508 36.1945V6.53824C127.508 3.32099 124.9 0.712891 121.683 0.712891Z" stroke="#A6A6A6" stroke-width="0.972567"/>
<path d="M27.1069 22.1764C27.1196 21.2021 27.3844 20.2469 27.8769 19.3994C28.3694 18.552 29.0738 17.8399 29.9243 17.3296C29.3841 16.5766 28.6713 15.9568 27.843 15.5196C27.0148 15.0823 26.0933 14.8397 25.1517 14.811C23.1446 14.6052 21.1979 15.9839 20.1748 15.9839C19.1315 15.9839 17.5565 14.8314 15.8598 14.8654C14.7625 14.9001 13.6938 15.2116 12.7565 15.7696C11.8191 16.3277 11.0459 17.1133 10.5121 18.0498C8.19998 21.9585 9.92428 27.7029 12.139 30.8625C13.2479 32.4096 14.5432 34.1378 16.2379 34.0765C17.8965 34.0093 18.5151 33.044 20.5179 33.044C22.5007 33.044 23.0821 34.0765 24.8107 34.0375C26.5911 34.0093 27.7117 32.4835 28.7814 30.9218C29.5779 29.8194 30.1901 28.601 30.5968 27.3118C29.5631 26.8848 28.6808 26.1702 28.0602 25.257C27.4395 24.3438 27.108 23.2725 27.1069 22.1764Z" fill="white"/>
<path d="M23.8351 12.7426C24.8053 11.6054 25.283 10.1437 25.1675 8.66797C23.6847 8.81998 22.3152 9.51169 21.3323 10.6053C20.8515 11.1395 20.4829 11.761 20.2488 12.4343C20.0137 13.1076 19.9173 13.8195 19.965 14.5291C20.7064 14.5365 21.4404 14.3797 22.1098 14.0702C22.7802 13.7608 23.3702 13.3069 23.8351 12.7426Z" fill="white"/>
<path d="M39.918 9.18863H42.1104C44.0042 9.18863 44.9267 10.315 44.9267 12.3583C44.9267 14.4016 43.9957 15.542 42.1104 15.542H39.918V9.18863ZM40.975 10.0776V14.653H41.9939C43.2511 14.653 43.8421 13.8943 43.8421 12.3723C43.8421 10.841 43.2458 10.0776 41.9939 10.0776H40.975ZM48.2683 10.5384C49.5531 10.5384 50.4512 11.3716 50.4512 12.754V13.3916C50.4512 14.8205 49.5531 15.6258 48.2683 15.6258C46.9645 15.6258 46.0759 14.8298 46.0759 13.3963V12.7587C46.0759 11.4135 46.9794 10.5384 48.2683 10.5384ZM48.2726 11.3716C47.5375 11.3716 47.1181 11.986 47.1181 12.8098V13.3591C47.1181 14.1829 47.5089 14.7927 48.2726 14.7927C49.0267 14.7927 49.4133 14.1876 49.4133 13.3591V12.8098C49.4133 11.986 49.0087 11.3716 48.2726 11.3716ZM58.038 10.6222L56.7437 15.542H55.692L54.6635 11.9115H54.636L53.6255 15.542H52.5685L51.2191 10.6222H52.3313L53.1224 14.3738H53.169L54.1604 10.6222H55.1338L56.1527 14.3738H56.1993L57.0042 10.6222H58.038ZM59.0622 15.542V10.6222H60.0768V11.5065H60.1277C60.2537 11.1203 60.6117 10.5477 61.6084 10.5477C62.5998 10.5477 63.2649 11.097 63.2649 12.2187V15.542H62.2312V12.5212C62.2312 11.7718 61.8403 11.4274 61.2589 11.4274C60.4952 11.4274 60.0949 12.0139 60.0949 12.8098V15.542H59.0622ZM64.8293 15.542V8.85352H65.8619V15.542H64.8293ZM69.409 10.5384C70.6938 10.5384 71.592 11.3716 71.592 12.754V13.3916C71.592 14.8205 70.6938 15.6258 69.409 15.6258C68.1052 15.6258 67.2166 14.8298 67.2166 13.3963V12.7587C67.2166 11.4135 68.119 10.5384 69.409 10.5384ZM69.4133 11.3716C68.6782 11.3716 68.2588 11.986 68.2588 12.8098V13.3591C68.2588 14.1829 68.6496 14.7927 69.4133 14.7927C70.1674 14.7927 70.554 14.1876 70.554 13.3591V12.8098C70.554 11.986 70.1483 11.3716 69.4133 11.3716ZM74.2685 15.6165C73.3142 15.6165 72.6575 15.03 72.6575 14.1131C72.6575 13.2427 73.2622 12.6562 74.3987 12.6562H75.6411V12.1954C75.6411 11.6322 75.2831 11.3669 74.7154 11.3669C74.1562 11.3669 73.9051 11.5996 73.8257 11.9254H72.8439C72.9043 11.1016 73.5239 10.5477 74.7472 10.5477C75.7989 10.5477 76.6696 10.9853 76.6696 12.2094V15.542H75.6877V14.9043H75.6411C75.4219 15.2814 74.994 15.6165 74.2685 15.6165ZM74.5894 14.816C75.1761 14.816 75.6411 14.4156 75.6411 13.8804V13.3498H74.5618C73.9613 13.3498 73.6954 13.6523 73.6954 14.0618C73.6954 14.5738 74.1233 14.816 74.5894 14.816ZM79.8534 10.5571C80.5471 10.5571 81.0777 10.8643 81.2684 11.3623H81.3192V8.85352H82.353V15.542H81.3478V14.7554H81.2959C81.1477 15.2534 80.5566 15.6071 79.8396 15.6071C78.7084 15.6071 77.9734 14.802 77.9734 13.5034V12.6609C77.9734 11.3623 78.7222 10.5571 79.8534 10.5571ZM80.1425 11.4042C79.453 11.4042 79.0251 11.9162 79.0251 12.8098V13.3498C79.0251 14.248 79.4583 14.76 80.1658 14.76C80.8638 14.76 81.3192 14.2527 81.3192 13.4149V12.6702C81.3192 11.9115 80.8214 11.4042 80.1425 11.4042ZM88.0268 10.5384C89.3116 10.5384 90.2098 11.3716 90.2098 12.754V13.3916C90.2098 14.8205 89.3116 15.6258 88.0268 15.6258C86.723 15.6258 85.8344 14.8298 85.8344 13.3963V12.7587C85.8344 11.4135 86.7379 10.5384 88.0268 10.5384ZM88.0311 11.3716C87.296 11.3716 86.8766 11.986 86.8766 12.8098V13.3591C86.8766 14.1829 87.2685 14.7927 88.0311 14.7927C88.7852 14.7927 89.1718 14.1876 89.1718 13.3591V12.8098C89.1718 11.986 88.7672 11.3716 88.0311 11.3716ZM91.5411 15.542V10.6222H92.5558V11.5065H92.6066C92.7327 11.1203 93.0907 10.5477 94.0873 10.5477C95.0787 10.5477 95.7438 11.097 95.7438 12.2187V15.542H94.7101V12.5212C94.7101 11.7718 94.3193 11.4274 93.7378 11.4274C92.9742 11.4274 92.5738 12.0139 92.5738 12.8098V15.542H91.5411ZM99.7422 10.6548V9.42602H100.753V10.6548H101.855V11.4647H100.753V14.0758C100.753 14.6111 100.953 14.76 101.506 14.76C101.645 14.76 101.832 14.7507 101.911 14.7414V15.5327C101.828 15.5467 101.482 15.5746 101.25 15.5746C100.054 15.5746 99.7284 15.1464 99.7284 14.1596V11.4647H98.9785V10.6548H99.7422ZM103.159 15.542V8.85352H104.187V11.5065H104.238C104.345 11.1575 104.746 10.5477 105.733 10.5477C106.691 10.5477 107.375 11.1016 107.375 12.2234V15.542H106.347V12.5259C106.347 11.7765 105.933 11.4274 105.346 11.4274C104.606 11.4274 104.187 12.0093 104.187 12.8098V15.542H103.159ZM110.843 15.6258C109.502 15.6258 108.67 14.802 108.67 13.4149V12.7493C108.67 11.353 109.582 10.5384 110.783 10.5384C112.016 10.5384 112.886 11.3949 112.886 12.7493V13.3265H109.693V13.5685C109.693 14.276 110.112 14.7973 110.838 14.7973C111.378 14.7973 111.751 14.5413 111.821 14.2341H112.83C112.77 14.802 112.169 15.6258 110.843 15.6258ZM109.693 12.6516H111.876V12.5864C111.876 11.8463 111.444 11.3529 110.787 11.3529C110.131 11.3529 109.693 11.8463 109.693 12.5864V12.6516Z" fill="white"/>
<path d="M41.4118 32.4889H39.2617L43.6371 19.7821H46.0011L50.3669 32.4889H48.1332L47.0063 28.9701H42.5472L41.4118 32.4889ZM44.8286 21.979H44.745L43.0228 27.3503H46.5317L44.8286 21.979ZM56.3014 32.6285C55.0262 32.6285 54.0581 32.0234 53.537 31.1205H53.4629V35.7564H51.3964V22.6494H53.4067V24.0922H53.4809C54.021 23.152 55.0262 22.519 56.348 22.519C58.5542 22.519 60.1281 24.1853 60.1281 27.1269V28.002C60.1281 30.925 58.5733 32.6285 56.3014 32.6285ZM55.8269 30.925C57.1392 30.925 58.0331 29.8731 58.0331 27.8903V27.2014C58.0331 25.2931 57.1953 24.2039 55.7898 24.2039C54.3473 24.2039 53.4438 25.3769 53.4438 27.1921V27.8903C53.4438 29.752 54.3557 30.925 55.8269 30.925ZM66.8071 32.6285C65.5319 32.6285 64.5638 32.0234 64.0427 31.1205H63.9675V35.7564H61.9011V22.6494H63.9125V24.0922H63.9866C64.5268 23.152 65.5319 22.519 66.8537 22.519C69.06 22.519 70.6328 24.1853 70.6328 27.1269V28.002C70.6328 30.925 69.079 32.6285 66.8071 32.6285ZM66.3326 30.925C67.6449 30.925 68.5388 29.8731 68.5388 27.8903V27.2014C68.5388 25.2931 67.7011 24.2039 66.2956 24.2039C64.8519 24.2039 63.9495 25.3769 63.9495 27.1921V27.8903C63.9495 29.752 64.8615 30.925 66.3326 30.925ZM74.916 28.9608H76.9824C77.0756 30.0593 78.0437 30.9995 79.84 30.9995C81.4881 30.9995 82.4657 30.2269 82.4657 29.026C82.4657 28.0578 81.8132 27.5365 80.4543 27.2107L78.3689 26.6894C76.7314 26.3078 75.2602 25.3303 75.2602 23.2637C75.2602 20.8341 77.3828 19.5029 79.8496 19.5029C82.3163 19.5029 84.3732 20.8341 84.4198 23.2079H82.3905C82.2973 22.128 81.469 21.2343 79.822 21.2343C78.3689 21.2343 77.3828 21.9232 77.3828 23.1054C77.3828 23.934 77.96 24.5298 79.142 24.7997L81.218 25.3116C83.1266 25.7771 84.5787 26.6801 84.5787 28.8398C84.5787 31.3346 82.5589 32.7402 79.6822 32.7402C76.1446 32.7402 74.9626 30.6736 74.916 28.9608ZM87.0963 22.6494V20.2569H89.1256V22.6494H91.0437V24.3063H89.1256V29.5565C89.1256 30.6271 89.526 30.925 90.6339 30.925C90.8107 30.925 90.9781 30.925 91.0999 30.9064V32.4889C90.9325 32.5169 90.5407 32.554 90.1223 32.554C87.7297 32.554 87.0688 31.6976 87.0688 29.7241V24.3063H85.7099V22.6494H87.0963ZM96.6244 22.4818C99.4545 22.4818 100.99 24.4739 100.99 27.1549V27.9461C100.99 30.7202 99.464 32.6565 96.6244 32.6565C93.7859 32.6565 92.2406 30.7202 92.2406 27.9461V27.1549C92.2406 24.4832 93.7944 22.4818 96.6244 22.4818ZM96.6244 24.1387C95.0887 24.1387 94.325 25.3954 94.325 27.1827V27.9368C94.325 29.6962 95.0791 30.9902 96.6244 30.9902C98.1697 30.9902 98.9143 29.7055 98.9143 27.9368V27.1827C98.9143 25.3861 98.1602 24.1387 96.6244 24.1387ZM102.737 32.4889V22.6494H104.803V23.9432H104.877C105.128 23.3289 105.864 22.5097 107.233 22.5097C107.503 22.5097 107.735 22.5283 107.931 22.5656V24.3901C107.754 24.3436 107.391 24.3156 107.047 24.3156C105.389 24.3156 104.831 25.3396 104.831 26.6614V32.4889H102.737ZM112.944 32.6565C110.31 32.6565 108.634 30.9156 108.634 28.002V27.0059C108.634 24.2598 110.272 22.4818 112.86 22.4818C115.485 22.4818 117.067 24.3249 117.067 27.099V28.0392H110.672V28.272C110.672 29.9289 111.566 31.0274 112.971 31.0274C114.023 31.0274 114.74 30.5061 114.992 29.6589H116.956C116.658 31.2509 115.374 32.6565 112.944 32.6565ZM110.672 26.5963H115.047V26.5777C115.047 25.1814 114.182 24.0829 112.87 24.0829C111.538 24.0829 110.672 25.1814 110.672 26.5777V26.5963Z" fill="white"/>
</svg>
