<svg width="128" height="43" viewBox="0 0 128 43" fill="none" xmlns="http://www.w3.org/2000/svg">
<path d="M121.144 0.712891H6.75503C3.53778 0.712891 0.929688 3.32099 0.929688 6.53824V36.1945C0.929688 39.4118 3.53778 42.0199 6.75503 42.0199H121.144C124.361 42.0199 126.969 39.4118 126.969 36.1945V6.53824C126.969 3.32099 124.361 0.712891 121.144 0.712891Z" fill="black"/>
<path d="M121.144 0.712891H6.75503C3.53778 0.712891 0.929688 3.32099 0.929688 6.53824V36.1945C0.929688 39.4118 3.53778 42.0199 6.75503 42.0199H121.144C124.361 42.0199 126.969 39.4118 126.969 36.1945V6.53824C126.969 3.32099 124.361 0.712891 121.144 0.712891Z" stroke="#A6A6A6" stroke-width="0.972567"/>
<path d="M19.2586 20.7998L8.96875 31.9677C8.96971 31.9697 8.96971 31.9727 8.97069 31.9747C9.28672 33.1874 10.3692 34.0798 11.6546 34.0798C12.1687 34.0798 12.651 33.9374 13.0646 33.6884L13.0974 33.6686L24.6795 26.8344L19.2586 20.7998Z" fill="#EA4335"/>
<path d="M29.6671 18.884L29.6574 18.8771L24.657 15.9131L19.0234 21.0395L24.6772 26.8192L29.6507 23.8849C30.5224 23.4026 31.1148 22.4627 31.1148 21.3795C31.1148 20.3022 30.5311 19.3673 29.6671 18.884Z" fill="#FBBC04"/>
<path d="M8.96971 10.7676C8.90786 11.0008 8.875 11.2459 8.875 11.4989V31.2337C8.875 31.4866 8.90785 31.7317 8.97068 31.964L19.6133 21.0816L8.96971 10.7676Z" fill="#3BB9A3"/>
<path d="M19.335 21.3777L24.6603 15.9331L13.0916 9.07416C12.6713 8.81622 12.1802 8.66797 11.6555 8.66797C10.3701 8.66797 9.28574 9.56239 8.96971 10.776L8.96875 10.779L19.335 21.3777Z" fill="#34A853"/>
<path d="M46.598 12.5682C46.598 13.6273 46.2837 14.4712 45.6553 15.0996C44.9492 15.8481 44.0207 16.2223 42.8697 16.2223C41.7682 16.2223 40.8362 15.841 40.0736 15.0784C39.311 14.3158 38.9297 13.3766 38.9297 12.261C38.9297 11.1454 39.311 10.2063 40.0736 9.44369C40.8362 8.6811 41.7682 8.2998 42.8697 8.2998C43.4276 8.2998 43.9536 8.39866 44.4479 8.59637C44.9422 8.79408 45.3482 9.07299 45.6659 9.4331L44.9669 10.1321C44.7339 9.8497 44.4302 9.63081 44.056 9.47547C43.6888 9.31307 43.2934 9.23186 42.8697 9.23186C42.0436 9.23186 41.3446 9.51783 40.7726 10.0898C40.2078 10.6688 39.9253 11.3925 39.9253 12.261C39.9253 13.1295 40.2078 13.8533 40.7726 14.4323C41.3446 15.0043 42.0436 15.2902 42.8697 15.2902C43.6252 15.2902 44.2537 15.0784 44.755 14.6547C45.2563 14.2311 45.5459 13.6485 45.6235 12.9071H42.8697V11.9963H46.545C46.5803 12.194 46.598 12.3846 46.598 12.5682ZM52.2091 8.46927V9.40133H48.7563V11.8056H51.8702V12.7165H48.7563V15.1208H52.2091V16.0528H47.7819V8.46927H52.2091ZM56.1067 9.40133V16.0528H55.1323V9.40133H53.014V8.46927H58.225V9.40133H56.1067ZM62.5439 16.0528H61.5695V8.46927H62.5439V16.0528ZM66.657 9.40133V16.0528H65.6825V9.40133H63.5642V8.46927H68.7753V9.40133H66.657ZM79.3375 12.261C79.3375 13.3837 78.9633 14.3229 78.2148 15.0784C77.4593 15.841 76.5342 16.2223 75.4398 16.2223C74.3383 16.2223 73.4133 15.841 72.6648 15.0784C71.9163 14.3229 71.5421 13.3837 71.5421 12.261C71.5421 11.1383 71.9163 10.1992 72.6648 9.44369C73.4133 8.6811 74.3383 8.2998 75.4398 8.2998C76.5413 8.2998 77.4663 8.68463 78.2148 9.45428C78.9633 10.2098 79.3375 11.1454 79.3375 12.261ZM72.5377 12.261C72.5377 13.1366 72.8131 13.8604 73.3638 14.4323C73.9217 15.0043 74.6136 15.2902 75.4398 15.2902C76.2659 15.2902 76.9544 15.0043 77.5051 14.4323C78.063 13.8675 78.3419 13.1436 78.3419 12.261C78.3419 11.3784 78.063 10.6547 77.5051 10.0898C76.9544 9.51783 76.2659 9.23186 75.4398 9.23186C74.6136 9.23186 73.9217 9.51783 73.3638 10.0898C72.8131 10.6617 72.5377 11.3854 72.5377 12.261ZM81.4618 16.0528H80.4874V8.46927H81.6736L85.3595 14.3688H85.4019L85.3595 12.9071V8.46927H86.3339V16.0528H85.3171L81.4618 9.86735H81.4194L81.4618 11.329V16.0528Z" fill="white"/>
<path d="M99.444 33.4528H101.169V21.7898H99.444V33.4528ZM114.983 25.9909L113.005 31.0476H112.946L110.893 25.9909H109.034L112.112 33.0582L110.358 36.9896H112.157L116.901 25.9909H114.983ZM105.199 32.1279C104.633 32.1279 103.846 31.8434 103.846 31.1372C103.846 30.2377 104.827 29.8926 105.674 29.8926C106.432 29.8926 106.79 30.0577 107.251 30.2825C107.116 31.3629 106.195 32.1279 105.199 32.1279ZM105.407 25.7362C104.158 25.7362 102.864 26.2913 102.329 27.522L103.86 28.1667C104.188 27.522 104.797 27.3111 105.437 27.3111C106.329 27.3111 107.236 27.8512 107.251 28.8122V28.9317C106.938 28.7515 106.27 28.482 105.452 28.482C103.801 28.482 102.12 29.3972 102.12 31.1073C102.12 32.6682 103.474 33.6738 104.99 33.6738C106.151 33.6738 106.79 33.1486 107.192 32.5328H107.251V33.4332H108.916V28.9615C108.916 26.8912 107.384 25.7362 105.407 25.7362ZM94.7456 27.411H92.2919V23.4132H94.7456C96.0353 23.4132 96.7675 24.4908 96.7675 25.4116C96.7675 26.3156 96.0353 27.411 94.7456 27.411ZM94.7012 21.7898H90.5676V33.4528H92.2919V29.0342H94.7012C96.6131 29.0342 98.4926 27.6367 98.4926 25.4116C98.4926 23.1865 96.6131 21.7898 94.7012 21.7898ZM72.1604 32.1298C70.9687 32.1298 69.9711 31.1232 69.9711 29.7405C69.9711 28.3429 70.9687 27.3204 72.1604 27.3204C73.3373 27.3204 74.2599 28.3429 74.2599 29.7405C74.2599 31.1232 73.3373 32.1298 72.1604 32.1298ZM74.1416 26.644H74.0816C73.6941 26.1785 72.95 25.7577 72.0116 25.7577C70.045 25.7577 68.2432 27.5005 68.2432 29.7405C68.2432 31.9647 70.045 33.6934 72.0116 33.6934C72.95 33.6934 73.6941 33.2726 74.0816 32.7912H74.1416V33.3632C74.1416 34.8811 73.3373 35.6928 72.0411 35.6928C70.9834 35.6928 70.3279 34.9259 70.0599 34.2794L68.5556 34.9109C68.9875 35.9633 70.1347 37.2555 72.0411 37.2555C74.0667 37.2555 75.7799 36.0529 75.7799 33.1224V25.9975H74.1416V26.644ZM76.9716 33.4528H78.6995V21.789H76.9716V33.4528ZM81.2457 29.6052C81.2013 28.0724 82.4226 27.2905 83.3009 27.2905C83.9869 27.2905 84.5675 27.6358 84.7607 28.1321L81.2457 29.6052ZM86.6079 28.2823C86.2806 27.396 85.2821 25.7577 83.2418 25.7577C81.2161 25.7577 79.5335 27.3652 79.5335 29.7256C79.5335 31.9497 81.2013 33.6934 83.435 33.6934C85.2377 33.6934 86.2806 32.5813 86.7124 31.9348L85.3718 31.0326C84.9253 31.6942 84.3142 32.1298 83.435 32.1298C82.5566 32.1298 81.9307 31.7239 81.5286 30.9282L86.7863 28.7329L86.6079 28.2823ZM44.7196 26.9752V28.6583H48.7108C48.5915 29.6052 48.279 30.2965 47.8029 30.7771C47.2213 31.3638 46.3126 32.0104 44.7196 32.0104C42.2613 32.0104 40.3401 30.0111 40.3401 27.5313C40.3401 25.0505 42.2613 23.0521 44.7196 23.0521C46.0453 23.0521 47.0133 23.5783 47.728 24.2548L48.9049 23.067C47.9064 22.1052 46.5816 21.3682 44.7196 21.3682C41.3534 21.3682 38.5234 24.1344 38.5234 27.5313C38.5234 30.9282 41.3534 33.6934 44.7196 33.6934C46.5363 33.6934 47.9064 33.0917 48.9789 31.9647C50.0819 30.8526 50.4239 29.2899 50.4239 28.0266C50.4239 27.6358 50.3943 27.2756 50.3343 26.9752H44.7196ZM54.9624 32.1298C53.7707 32.1298 52.7426 31.1381 52.7426 29.7256C52.7426 28.2973 53.7707 27.3204 54.9624 27.3204C56.1532 27.3204 57.1813 28.2973 57.1813 29.7256C57.1813 31.1381 56.1532 32.1298 54.9624 32.1298ZM54.9624 25.7577C52.787 25.7577 51.0147 27.4259 51.0147 29.7256C51.0147 32.0104 52.787 33.6934 54.9624 33.6934C57.1369 33.6934 58.9092 32.0104 58.9092 29.7256C58.9092 27.4259 57.1369 25.7577 54.9624 25.7577ZM63.5724 32.1298C62.3808 32.1298 61.3527 31.1381 61.3527 29.7256C61.3527 28.2973 62.3808 27.3204 63.5724 27.3204C64.7642 27.3204 65.7914 28.2973 65.7914 29.7256C65.7914 31.1381 64.7642 32.1298 63.5724 32.1298ZM63.5724 25.7577C61.398 25.7577 59.6257 27.4259 59.6257 29.7256C59.6257 32.0104 61.398 33.6934 63.5724 33.6934C65.747 33.6934 67.5193 32.0104 67.5193 29.7256C67.5193 27.4259 65.747 25.7577 63.5724 25.7577Z" fill="white"/>
</svg>
