<svg width="83" height="87" viewBox="0 0 83 87" fill="none" xmlns="http://www.w3.org/2000/svg">
<g filter="url(#filter0_d_3026_126)">
<circle cx="41.8693" cy="41.8771" r="41.0529" fill="white"/>
</g>
<path fill-rule="evenodd" clip-rule="evenodd" d="M50.3925 34.3853H61.7096V62.145H50.3925V34.3853ZM27.7594 62.145H38.0508V50.1393H27.7594V61.1193H20.6808C20.5448 61.1193 20.4144 61.1733 20.3182 61.2695C20.222 61.3657 20.168 61.4961 20.168 61.6321C20.168 61.7681 20.222 61.8986 20.3182 61.9948C20.4144 62.0909 20.5448 62.145 20.6808 62.145H27.7594ZM36.4348 33.8377C36.7146 33.8376 36.9881 33.9206 37.2207 34.076C37.4534 34.2315 37.6347 34.4524 37.7418 34.7109C37.8489 34.9694 37.8769 35.2538 37.8223 35.5283C37.7677 35.8027 37.633 36.0548 37.4352 36.2526C37.2373 36.4505 36.9852 36.5852 36.7108 36.6398C36.4364 36.6943 36.152 36.6663 35.8935 36.5592C35.635 36.4522 35.414 36.2708 35.2586 36.0382C35.1032 35.8055 35.0202 35.532 35.0202 35.2522C35.0202 34.8771 35.1693 34.5173 35.4345 34.252C35.6998 33.9867 36.0596 33.8377 36.4348 33.8377ZM28.5578 41.7147C28.8375 41.7148 29.111 41.7978 29.3436 41.9532C29.5761 42.1087 29.7574 42.3297 29.8644 42.5881C29.9714 42.8466 29.9994 43.131 29.9448 43.4054C29.8901 43.6798 29.7554 43.9318 29.5575 44.1296C29.3597 44.3274 29.1076 44.4621 28.8333 44.5166C28.5589 44.5712 28.2745 44.5432 28.016 44.4361C27.7576 44.329 27.5367 44.1477 27.3812 43.9151C27.2258 43.6825 27.1429 43.409 27.1429 43.1292C27.1429 42.7541 27.2919 42.3943 27.5572 42.129C27.8225 41.8637 28.1823 41.7147 28.5574 41.7147H28.5578ZM44.3117 27.8881C42.757 27.8882 41.2422 28.3801 39.984 29.2934C38.7259 30.2067 37.7889 31.4946 37.3072 32.9728C36.9804 32.8478 36.6306 32.7946 36.2814 32.8169C36.8046 31.0945 37.8675 29.5859 39.3134 28.5138C40.7594 27.4416 42.5117 26.8627 44.3117 26.8624H45.8715L44.4626 25.4536C44.4136 25.4063 44.3745 25.3497 44.3476 25.2871C44.3208 25.2246 44.3066 25.1573 44.306 25.0892C44.3054 25.0211 44.3184 24.9535 44.3442 24.8905C44.37 24.8275 44.4081 24.7702 44.4562 24.7221C44.5044 24.6739 44.5616 24.6358 44.6247 24.61C44.6877 24.5842 44.7552 24.5713 44.8233 24.5719C44.8914 24.5725 44.9587 24.5866 45.0213 24.6135C45.0839 24.6404 45.1405 24.6794 45.1878 24.7284L47.4707 27.0112C47.5203 27.061 47.5592 27.1204 47.585 27.1857C47.6108 27.2511 47.6229 27.321 47.6206 27.3912C47.6183 27.4614 47.6017 27.5304 47.5718 27.594C47.5418 27.6575 47.4991 27.7143 47.4464 27.7607L45.1849 30.0222C45.0881 30.1157 44.9586 30.1674 44.8241 30.1662C44.6896 30.165 44.561 30.1111 44.4659 30.016C44.3708 29.9209 44.3169 29.7923 44.3157 29.6578C44.3146 29.5233 44.3663 29.3938 44.4597 29.2971L45.8686 27.8881H44.3117ZM34.1554 36.1247C33.0517 36.4852 32.0485 37.101 31.2275 37.922C30.4065 38.743 29.7907 39.7461 29.4302 40.8498C29.1035 40.7248 28.7536 40.6716 28.4045 40.6939C28.8063 39.3737 29.5269 38.1726 30.5028 37.1968C31.4786 36.221 32.6796 35.5003 33.9999 35.0985C33.9774 35.4478 34.0306 35.7978 34.1558 36.1247H34.1554ZM26.2784 44.0017C24.8001 44.4834 23.5122 45.4203 22.5989 46.6785C21.6856 47.9366 21.1937 49.4515 21.1937 51.0062C21.1937 51.1422 21.1397 51.2726 21.0435 51.3688C20.9473 51.465 20.8168 51.519 20.6808 51.519C20.5448 51.519 20.4144 51.465 20.3182 51.3688C20.222 51.2726 20.168 51.1422 20.168 51.0062C20.1682 49.2061 20.7471 47.4537 21.8192 46.0077C22.8914 44.5617 24.4 43.4987 26.1224 42.9755C26.1001 43.3247 26.1532 43.6745 26.2784 44.0013V44.0017ZM49.3672 62.145H39.0758V42.2623H49.3672V62.145ZM56.1169 21.2478L57.3589 25.0966L61.4032 25.0888C61.4434 25.0888 61.4825 25.1015 61.515 25.1252C61.5475 25.1488 61.5717 25.1821 61.5842 25.2203C61.5966 25.2585 61.5966 25.2997 61.5842 25.3379C61.5718 25.3761 61.5476 25.4094 61.5151 25.4331L58.2393 27.804L59.4958 31.6479C59.5081 31.6861 59.508 31.7272 59.4955 31.7654C59.4831 31.8035 59.4589 31.8368 59.4264 31.8604C59.394 31.884 59.3549 31.8967 59.3147 31.8968C59.2746 31.8968 59.2355 31.8842 59.2029 31.8608L55.9356 29.4772L52.6685 31.8606C52.636 31.8841 52.5968 31.8967 52.5567 31.8966C52.5166 31.8965 52.4775 31.8838 52.445 31.8602C52.4126 31.8366 52.3884 31.8034 52.3759 31.7652C52.3635 31.7271 52.3634 31.686 52.3757 31.6478L53.6328 27.8038L50.3564 25.4327C50.3239 25.4091 50.2997 25.3758 50.2873 25.3376C50.2749 25.2993 50.2749 25.2582 50.2873 25.22C50.2997 25.1817 50.3239 25.1484 50.3564 25.1248C50.3889 25.1012 50.4281 25.0885 50.4683 25.0884L54.5125 25.0962L55.7549 21.2478C55.7673 21.2096 55.7915 21.1762 55.824 21.1526C55.8565 21.1289 55.8957 21.1162 55.9359 21.1162C55.9761 21.1162 56.0153 21.1289 56.0478 21.1526C56.0803 21.1762 56.1045 21.2096 56.1169 21.2478Z" fill="#FF0004"/>
<defs>
<filter id="filter0_d_3026_126" x="0.816406" y="0.824219" width="82.1055" height="85.6753" filterUnits="userSpaceOnUse" color-interpolation-filters="sRGB">
<feFlood flood-opacity="0" result="BackgroundImageFix"/>
<feColorMatrix in="SourceAlpha" type="matrix" values="0 0 0 0 0 0 0 0 0 0 0 0 0 0 0 0 0 0 127 0" result="hardAlpha"/>
<feOffset dy="3.56981"/>
<feComposite in2="hardAlpha" operator="out"/>
<feColorMatrix type="matrix" values="0 0 0 0 1 0 0 0 0 0.274167 0 0 0 0 0.30731 0 0 0 1 0"/>
<feBlend mode="normal" in2="BackgroundImageFix" result="effect1_dropShadow_3026_126"/>
<feBlend mode="normal" in="SourceGraphic" in2="effect1_dropShadow_3026_126" result="shape"/>
</filter>
</defs>
</svg>
