<svg width="83" height="87" viewBox="0 0 83 87" fill="none" xmlns="http://www.w3.org/2000/svg">
<g filter="url(#filter0_d_3026_123)">
<circle cx="41.4044" cy="41.8771" r="41.0529" fill="white"/>
</g>
<g clip-path="url(#clip0_3026_123)">
<path d="M31.1718 58.6602C30.5016 58.6602 29.959 59.2028 29.959 59.873V62.2987C29.959 62.9689 30.5016 63.5115 31.1718 63.5115C31.8421 63.5115 32.3847 62.9689 32.3847 62.2987V59.873C32.3847 59.2028 31.8421 58.6602 31.1718 58.6602Z" fill="#FF0004"/>
<path d="M36.8848 56.5897C36.411 56.1159 35.6435 56.1159 35.1698 56.5897C34.696 57.0635 34.696 57.831 35.1698 58.3047L37.5955 60.7304C37.8324 60.9673 38.1425 61.0858 38.453 61.0858C38.7631 61.0858 39.0736 60.9673 39.3105 60.7304C39.7843 60.2567 39.7843 59.4892 39.3105 59.0154L36.8848 56.5897Z" fill="#FF0004"/>
<path d="M25.4568 56.5897L23.0311 59.0154C22.5573 59.4892 22.5573 60.2567 23.0311 60.7304C23.5049 61.2042 24.2724 61.2042 24.7461 60.7304L27.1718 58.3047C27.6456 57.831 27.6456 57.0635 27.1718 56.5897C26.6981 56.1159 25.9306 56.1159 25.4568 56.5897Z" fill="#FF0004"/>
<path d="M50.5761 26.9647C51.2463 26.9647 51.789 26.422 51.789 25.7518V23.3261C51.789 22.6559 51.2463 22.1133 50.5761 22.1133C49.9059 22.1133 49.3633 22.6559 49.3633 23.3261V25.7518C49.3633 26.422 49.9059 26.9647 50.5761 26.9647Z" fill="#FF0004"/>
<path d="M56.2891 29.1152L58.7148 26.6895C59.1886 26.2157 59.1886 25.4482 58.7148 24.9745C58.241 24.5007 57.4735 24.5007 56.9998 24.9745L54.5741 27.4002C54.1003 27.8739 54.1003 28.6414 54.5741 29.1152C55.0478 29.589 55.8153 29.589 56.2891 29.1152Z" fill="#FF0004"/>
<path d="M44.8689 29.1152C45.3427 29.589 46.1102 29.589 46.5839 29.1152C47.0577 28.6414 47.0577 27.8739 46.5839 27.4002L44.1583 24.9745C43.6845 24.5007 42.917 24.5007 42.4432 24.9745C41.9694 25.4482 41.9694 26.2157 42.4432 26.6895L44.8689 29.1152Z" fill="#FF0004"/>
<path d="M44.5135 42.8119C44.5135 41.4721 43.4277 40.3862 42.0878 40.3862H40.875C40.2051 40.3862 39.6622 39.8433 39.6622 39.1734V31.8963H33.5979V30.6835C33.5979 28.6772 31.9656 27.0449 29.9594 27.0449C27.9531 27.0449 26.3209 28.6772 26.3209 30.6835V31.8963H21.3886C20.7184 31.8963 20.1758 32.4389 20.1758 33.1091V39.1734C20.1758 39.8433 20.7187 40.3862 21.3886 40.3862H22.6823C24.0221 40.3862 25.108 41.4721 25.108 42.8119C25.108 44.1517 24.0221 45.2376 22.6823 45.2376H21.3886C20.7187 45.2376 20.1758 45.7805 20.1758 46.4504V52.5147C20.1758 53.1849 20.7184 53.7275 21.3886 53.7275H26.3209C26.9908 53.7275 27.5337 53.1846 27.5337 52.5147V51.3018C27.5337 49.962 28.6196 48.8761 29.9594 48.8761C31.2992 48.8761 32.3851 49.962 32.3851 51.3018V52.5147C32.3851 53.1849 32.9277 53.7275 33.5979 53.7275H39.6622V46.4504C39.6622 45.7805 40.2051 45.2376 40.875 45.2376H42.0878C43.4277 45.2376 44.5135 44.1517 44.5135 42.8119Z" fill="#FF0004"/>
<path d="M59.0677 40.3864H60.3614C61.0313 40.3864 61.5743 39.8435 61.5743 39.1736V33.1093C61.5743 32.4391 61.0316 31.8965 60.3614 31.8965H55.4292C54.7593 31.8965 54.2163 32.4394 54.2163 33.1093V34.3222C54.2163 35.662 53.1305 36.7479 51.7906 36.7479C50.4508 36.7479 49.365 35.662 49.365 34.3222V33.1093C49.365 32.4391 48.8223 31.8965 48.1521 31.8965H42.0879V37.9607C44.8446 37.9607 46.9393 40.2594 46.9393 42.8121C46.9393 45.3651 44.8449 47.6635 42.0879 47.6635V53.7277H48.1521V54.9405C48.1521 56.9468 49.7844 58.5791 51.7906 58.5791C53.7969 58.5791 55.4292 56.9468 55.4292 54.9405V53.7277H60.3614C61.0316 53.7277 61.5743 53.1851 61.5743 52.5148V46.4506C61.5743 45.7807 61.0313 45.2378 60.3614 45.2378H59.0677C57.7279 45.2378 56.642 44.1519 56.642 42.8121C56.642 41.4723 57.7279 40.3864 59.0677 40.3864Z" fill="#FF0004"/>
</g>
<defs>
<filter id="filter0_d_3026_123" x="0.351562" y="0.824219" width="82.1055" height="85.6753" filterUnits="userSpaceOnUse" color-interpolation-filters="sRGB">
<feFlood flood-opacity="0" result="BackgroundImageFix"/>
<feColorMatrix in="SourceAlpha" type="matrix" values="0 0 0 0 0 0 0 0 0 0 0 0 0 0 0 0 0 0 127 0" result="hardAlpha"/>
<feOffset dy="3.56981"/>
<feComposite in2="hardAlpha" operator="out"/>
<feColorMatrix type="matrix" values="0 0 0 0 1 0 0 0 0 0.274167 0 0 0 0 0.30731 0 0 0 1 0"/>
<feBlend mode="normal" in2="BackgroundImageFix" result="effect1_dropShadow_3026_123"/>
<feBlend mode="normal" in="SourceGraphic" in2="effect1_dropShadow_3026_123" result="shape"/>
</filter>
<clipPath id="clip0_3026_123">
<rect width="41.3984" height="41.3984" fill="white" transform="translate(20.1719 22.1133)"/>
</clipPath>
</defs>
</svg>
