<svg width="83" height="87" viewBox="0 0 83 87" fill="none" xmlns="http://www.w3.org/2000/svg">
<g filter="url(#filter0_d_3026_124)">
<circle cx="41.5646" cy="41.8771" r="41.0529" fill="white"/>
</g>
<g clip-path="url(#clip0_3026_124)">
<path d="M63.6575 57.0183L63.586 56.9217C62.1125 55.2157 60.302 53.966 58.5512 52.7587C57.8364 52.2655 56.5663 51.4706 55.6678 50.8312C57.7531 47.8866 58.8701 44.3659 58.8638 40.7577C58.8638 31.1146 51.0461 23.2969 41.4022 23.2969C31.7583 23.2969 23.9414 31.1146 23.9414 40.7577C23.9414 50.4008 31.7591 58.2193 41.4022 58.2193C45.0059 58.2247 48.5223 57.11 51.4648 55.0295C52.1049 55.9273 52.899 57.195 53.3931 57.9098C54.6035 59.6637 55.8547 61.4703 57.5592 62.9423L57.6558 63.0129C58.1993 63.3453 58.8253 63.5184 59.4623 63.5125C60.4253 63.5095 61.3531 63.1496 62.0661 62.5024L63.1202 61.4507L63.1454 61.4247C64.2678 60.1963 64.483 58.3434 63.6575 57.0183ZM41.4022 53.6636C38.4159 53.6639 35.5219 52.6288 33.2133 50.7345C30.9047 48.8402 29.3244 46.2041 28.7415 43.2752C28.1587 40.3464 28.6095 37.306 30.017 34.6723C31.4246 32.0385 33.7018 29.9743 36.4608 28.8314C39.2197 27.6885 42.2895 27.5375 45.1472 28.4043C48.005 29.2711 50.4737 31.1019 52.1329 33.5849C53.792 36.0679 54.5389 39.0493 54.2462 42.0212C53.9535 44.9931 52.6393 47.7716 50.5277 49.8832C49.3322 51.0854 47.91 52.0385 46.3436 52.6875C44.7772 53.3364 43.0977 53.6681 41.4022 53.6636Z" fill="#FF0004"/>
<path d="M41.4025 42.3704C44.233 42.3704 46.5276 40.0758 46.5276 37.2453C46.5276 34.4147 44.233 32.1201 41.4025 32.1201C38.5719 32.1201 36.2773 34.4147 36.2773 37.2453C36.2773 40.0758 38.5719 42.3704 41.4025 42.3704Z" fill="#FF0004"/>
<path d="M49.8409 46.5936C49.764 45.8748 49.4423 45.2042 48.9298 44.6944C48.4152 44.1786 47.7404 43.8534 47.0164 43.7722C45.9568 43.6599 43.3247 43.5986 41.6855 43.5986C40.0462 43.5986 36.8203 43.6599 35.7599 43.7722C35.0361 43.8535 34.3614 44.1784 33.8466 44.6936C33.3343 45.2035 33.0129 45.8741 32.9362 46.5928V46.6148C32.9111 46.8583 32.8961 47.0696 32.8867 47.2502C33.1769 47.6298 33.4918 47.9898 33.8293 48.3279C35.8373 50.3355 38.5605 51.4634 41.3999 51.4634C44.2394 51.4634 46.9626 50.3355 48.9706 48.3279C49.3028 47.9951 49.6132 47.6411 49.8998 47.2683C49.888 47.0837 49.8708 46.8669 49.8448 46.6156L49.8409 46.5936Z" fill="#FF0004"/>
</g>
<defs>
<filter id="filter0_d_3026_124" x="0.511719" y="0.824219" width="82.1055" height="85.6753" filterUnits="userSpaceOnUse" color-interpolation-filters="sRGB">
<feFlood flood-opacity="0" result="BackgroundImageFix"/>
<feColorMatrix in="SourceAlpha" type="matrix" values="0 0 0 0 0 0 0 0 0 0 0 0 0 0 0 0 0 0 127 0" result="hardAlpha"/>
<feOffset dy="3.56981"/>
<feComposite in2="hardAlpha" operator="out"/>
<feColorMatrix type="matrix" values="0 0 0 0 1 0 0 0 0 0.274167 0 0 0 0 0.30731 0 0 0 1 0"/>
<feBlend mode="normal" in2="BackgroundImageFix" result="effect1_dropShadow_3026_124"/>
<feBlend mode="normal" in="SourceGraphic" in2="effect1_dropShadow_3026_124" result="shape"/>
</filter>
<clipPath id="clip0_3026_124">
<rect width="40.2156" height="40.2156" fill="white" transform="translate(23.9414 23.2949)"/>
</clipPath>
</defs>
</svg>
